<?xml version="1.0" encoding="utf-8"?>
<!-- Generator: Adobe Illustrator 25.0.1, SVG Export Plug-In . SVG Version: 6.00 Build 0)  -->
<svg version="1.1" id="Calque_1" xmlns="http://www.w3.org/2000/svg" xmlns:xlink="http://www.w3.org/1999/xlink" x="0px" y="0px"
	 viewBox="0 0 163.6 163.6" style="enable-background:new 0 0 163.6 163.6;" xml:space="preserve">
<style type="text/css">
	.st0{opacity:1;}
	.st1{fill:#fff;}
	.st2{fill:none;stroke:#435f6f;stroke-width:10;stroke-miterlimit:10;}
	.st3{fill:#435f6f;}
</style>
<g>
	<g class="st0">
		<path class="st1" d="M128.2,30.1V16.8c0-3-2.5-5.5-5.5-5.5l0,0c-3,0-5.5,2.5-5.5,5.5v13.3H46.5V16.8c0-3-2.5-5.5-5.5-5.5l0,0
			c-3,0-5.5,2.5-5.5,5.5v13.3h-6.2c-8,0-14.5,6.5-14.5,14.5v93.3c0,8,6.5,14.5,14.5,14.5h105.1c8,0,14.5-6.5,14.5-14.5V44.7
			c0-8-6.5-14.5-14.5-14.5L128.2,30.1L128.2,30.1z"/>
		<path class="st1" d="M129.5,140.6H34.3c-3.7,0-6.8-3-6.8-6.8v-76c0-3.7,3-6.8,6.8-6.8h95.4c3.7,0,6.8,3,6.8,6.8v76
			C136.2,137.6,133.2,140.6,129.5,140.6z"/>
	</g>
	<g>
		<path class="st2" d="M128.2,30.1V16.8c0-3-2.5-5.5-5.5-5.5l0,0c-3,0-5.5,2.5-5.5,5.5v13.3H46.5V16.8c0-3-2.5-5.5-5.5-5.5l0,0
			c-3,0-5.5,2.5-5.5,5.5v13.3h-6.2c-8,0-14.5,6.5-14.5,14.5v93.3c0,8,6.5,14.5,14.5,14.5h105.1c8,0,14.5-6.5,14.5-14.5V44.7
			c0-8-6.5-14.5-14.5-14.5L128.2,30.1L128.2,30.1z"/>
		<path class="st2" d="M129.5,140.6H34.3c-3.7,0-6.8-3-6.8-6.8v-76c0-3.7,3-6.8,6.8-6.8h95.4c3.7,0,6.8,3,6.8,6.8v76
			C136.2,137.6,133.2,140.6,129.5,140.6z"/>
	</g>
	<g>
		<g>
			<path class="st3" d="M51.7,100.2c-0.9,0-1.8-0.4-2.5-1c-0.2-0.2-0.3-0.3-0.4-0.5c-0.1-0.2-0.2-0.4-0.3-0.6s-0.2-0.4-0.2-0.7
				c0-0.2-0.1-0.5-0.1-0.7c0-0.9,0.4-1.8,1-2.5c1.3-1.3,3.6-1.3,4.9,0c0.6,0.7,1,1.5,1,2.5c0,0.2,0,0.5-0.1,0.7
				c0,0.2-0.1,0.4-0.2,0.7c-0.1,0.2-0.2,0.4-0.3,0.6s-0.3,0.4-0.4,0.5c-0.2,0.2-0.3,0.3-0.5,0.4s-0.4,0.2-0.6,0.3
				c-0.2,0.1-0.4,0.2-0.7,0.2C52.2,100.2,51.9,100.2,51.7,100.2z"/>
			<path class="st3" d="M96.6,96.9c0-1.9,1.6-3.5,3.5-3.5l0,0c1.9,0,3.5,1.6,3.5,3.5l0,0c0,1.9-1.6,3.5-3.5,3.5l0,0
				C98.1,100.2,96.6,98.8,96.6,96.9z M84.5,96.9c0-1.9,1.6-3.5,3.5-3.5l0,0c1.9,0,3.5,1.6,3.5,3.5l0,0c0,1.9-1.6,3.5-3.5,3.5l0,0
				C86,100.2,84.5,98.8,84.5,96.9z M72.4,96.9c0-1.9,1.6-3.5,3.5-3.5l0,0c1.9,0,3.5,1.6,3.5,3.5l0,0c0,1.9-1.6,3.5-3.5,3.5l0,0
				C73.9,100.2,72.4,98.8,72.4,96.9z M60.3,96.9c0-1.9,1.6-3.5,3.5-3.5l0,0c1.9,0,3.5,1.6,3.5,3.5l0,0c0,1.9-1.6,3.5-3.5,3.5l0,0
				C61.9,100.2,60.3,98.8,60.3,96.9z"/>
			<path class="st3" d="M112.1,100.2c-0.2,0-0.5,0-0.7-0.1c-0.2,0-0.4-0.1-0.7-0.2c-0.2-0.1-0.4-0.2-0.6-0.3
				c-0.2-0.1-0.4-0.3-0.5-0.4c-0.2-0.2-0.3-0.3-0.4-0.5s-0.2-0.4-0.3-0.6c-0.1-0.2-0.2-0.4-0.2-0.7c-0.1-0.2-0.1-0.5-0.1-0.7
				s0-0.5,0.1-0.7c0-0.2,0.1-0.4,0.2-0.7c0.1-0.2,0.2-0.4,0.3-0.6c0.1-0.2,0.3-0.4,0.4-0.5c0.2-0.2,0.3-0.3,0.5-0.4s0.4-0.2,0.6-0.3
				c0.2-0.1,0.4-0.2,0.7-0.2c0.4-0.1,0.9-0.1,1.4,0c0.2,0,0.4,0.1,0.7,0.2c0.2,0.1,0.4,0.2,0.6,0.3c0.2,0.1,0.4,0.3,0.5,0.4
				c0.2,0.2,0.3,0.3,0.4,0.5s0.2,0.4,0.3,0.6c0.1,0.2,0.2,0.4,0.2,0.7c0,0.2,0.1,0.5,0.1,0.7s0,0.5-0.1,0.7c0,0.2-0.1,0.4-0.2,0.7
				c-0.1,0.2-0.2,0.4-0.3,0.6c-0.1,0.2-0.3,0.4-0.4,0.5c-0.2,0.2-0.3,0.3-0.5,0.4s-0.4,0.2-0.6,0.3c-0.2,0.1-0.4,0.2-0.7,0.2
				C112.6,100.2,112.3,100.2,112.1,100.2z"/>
		</g>
	</g>
	<g>
		<g>
			<path class="st3" d="M51.7,81.8c-0.2,0-0.5,0-0.7-0.1c-0.2,0-0.4-0.1-0.7-0.2c-0.2-0.1-0.4-0.2-0.6-0.3c-0.2-0.1-0.4-0.3-0.5-0.4
				c-0.6-0.7-1-1.5-1-2.5c0-0.9,0.4-1.8,1-2.5c0.2-0.2,0.3-0.3,0.5-0.4s0.4-0.2,0.6-0.3c0.2-0.1,0.4-0.2,0.7-0.2
				c0.4-0.1,0.9-0.1,1.4,0c0.2,0,0.4,0.1,0.7,0.2c0.2,0.1,0.4,0.2,0.6,0.3c0.2,0.1,0.4,0.3,0.5,0.4c0.6,0.7,1,1.5,1,2.5
				c0,0.9-0.4,1.8-1,2.5c-0.2,0.2-0.3,0.3-0.5,0.4s-0.4,0.2-0.6,0.3c-0.2,0.1-0.4,0.2-0.7,0.2C52.2,81.7,51.9,81.8,51.7,81.8z"/>
			<path class="st3" d="M96.6,78.2c0-1.9,1.6-3.5,3.5-3.5l0,0c1.9,0,3.5,1.6,3.5,3.5l0,0c0,1.9-1.6,3.5-3.5,3.5l0,0
				C98.1,81.8,96.6,80.2,96.6,78.2z M84.5,78.2c0-1.9,1.6-3.5,3.5-3.5l0,0c1.9,0,3.5,1.6,3.5,3.5l0,0c0,1.9-1.6,3.5-3.5,3.5l0,0
				C86,81.8,84.5,80.2,84.5,78.2z M72.4,78.2c0-1.9,1.6-3.5,3.5-3.5l0,0c1.9,0,3.5,1.6,3.5,3.5l0,0c0,1.9-1.6,3.5-3.5,3.5l0,0
				C73.9,81.8,72.4,80.2,72.4,78.2z M60.3,78.2c0-1.9,1.6-3.5,3.5-3.5l0,0c1.9,0,3.5,1.6,3.5,3.5l0,0c0,1.9-1.6,3.5-3.5,3.5l0,0
				C61.9,81.8,60.3,80.2,60.3,78.2z"/>
			<path class="st3" d="M112.1,81.8c-0.2,0-0.5,0-0.7-0.1c-0.2,0-0.4-0.1-0.7-0.2c-0.2-0.1-0.4-0.2-0.6-0.3
				c-0.2-0.1-0.4-0.3-0.5-0.4c-0.2-0.2-0.3-0.3-0.4-0.5s-0.2-0.4-0.3-0.6c-0.1-0.2-0.2-0.4-0.2-0.7c-0.1-0.2-0.1-0.5-0.1-0.7
				c0-0.9,0.4-1.8,1-2.5c0.2-0.2,0.3-0.3,0.5-0.4s0.4-0.2,0.6-0.3c0.2-0.1,0.4-0.2,0.7-0.2c0.4-0.1,0.9-0.1,1.4,0
				c0.2,0,0.4,0.1,0.7,0.2c0.2,0.1,0.4,0.2,0.6,0.3c0.2,0.1,0.4,0.3,0.5,0.4c0.2,0.2,0.3,0.3,0.4,0.5s0.2,0.4,0.3,0.6
				c0.1,0.2,0.2,0.4,0.2,0.7c0,0.2,0.1,0.5,0.1,0.7c0,0.9-0.4,1.8-1,2.5c-0.2,0.2-0.3,0.3-0.5,0.4s-0.4,0.2-0.6,0.3
				c-0.2,0.1-0.4,0.2-0.7,0.2C112.6,81.7,112.3,81.8,112.1,81.8z"/>
		</g>
	</g>
	<g>
		<g>
			<path class="st3" d="M51.7,118.9c-0.9,0-1.8-0.4-2.5-1c-0.6-0.7-1-1.5-1-2.5c0-0.2,0-0.5,0.1-0.7s0.1-0.4,0.2-0.7
				c0.1-0.2,0.2-0.4,0.3-0.6s0.3-0.4,0.4-0.5c0.2-0.2,0.3-0.3,0.5-0.4s0.4-0.2,0.6-0.3c0.2-0.1,0.4-0.2,0.7-0.2
				c0.4-0.1,0.9-0.1,1.4,0c0.2,0,0.4,0.1,0.7,0.2c0.2,0.1,0.4,0.2,0.6,0.3c0.2,0.1,0.4,0.3,0.5,0.4c0.2,0.2,0.3,0.3,0.4,0.5
				s0.2,0.4,0.3,0.6s0.2,0.4,0.2,0.7c0,0.2,0.1,0.5,0.1,0.7c0,0.9-0.4,1.8-1,2.5C53.5,118.5,52.6,118.9,51.7,118.9z"/>
			<path class="st3" d="M84.5,115.4c0-1.9,1.6-3.5,3.5-3.5l0,0c1.9,0,3.5,1.6,3.5,3.5l0,0c0,1.9-1.6,3.5-3.5,3.5l0,0
				C86,118.9,84.5,117.2,84.5,115.4z M72.4,115.4c0-1.9,1.6-3.5,3.5-3.5l0,0c1.9,0,3.5,1.6,3.5,3.5l0,0c0,1.9-1.6,3.5-3.5,3.5l0,0
				C73.9,118.9,72.4,117.2,72.4,115.4z M60.3,115.4c0-1.9,1.6-3.5,3.5-3.5l0,0c1.9,0,3.5,1.6,3.5,3.5l0,0c0,1.9-1.6,3.5-3.5,3.5l0,0
				C61.9,118.9,60.3,117.2,60.3,115.4z"/>
			<path class="st3" d="M100,118.9c-0.2,0-0.5,0-0.7-0.1c-0.2,0-0.4-0.1-0.7-0.2c-0.2-0.1-0.4-0.2-0.6-0.3c-0.2-0.1-0.4-0.3-0.5-0.4
				c-0.6-0.7-1-1.5-1-2.5s0.4-1.8,1-2.5c0.2-0.2,0.3-0.3,0.5-0.4s0.4-0.2,0.6-0.3c0.2-0.1,0.4-0.2,0.7-0.2c0.4-0.1,0.9-0.1,1.4,0
				c0.2,0,0.4,0.1,0.7,0.2c0.2,0.1,0.4,0.2,0.6,0.3c0.2,0.1,0.4,0.3,0.5,0.4c0.6,0.7,1,1.5,1,2.5s-0.4,1.8-1,2.5
				C101.8,118.5,101,118.9,100,118.9z"/>
		</g>
	</g>
</g>
</svg>
