<?xml version="1.0" encoding="utf-8"?>
<!-- Generator: Adobe Illustrator 25.0.1, SVG Export Plug-In . SVG Version: 6.00 Build 0)  -->
<svg version="1.1" id="Calque_1" xmlns="http://www.w3.org/2000/svg" xmlns:xlink="http://www.w3.org/1999/xlink" x="0px" y="0px"
	 viewBox="0 0 163.6 163.6" style="enable-background:new 0 0 163.6 163.6;" xml:space="preserve">
<style type="text/css">
	.st0{opacity:1;}
	.st1{fill:#435f6f;}
	.st2{fill:none;stroke:#fff;stroke-width:10;stroke-linecap:round;stroke-linejoin:round;stroke-miterlimit:10;}
</style>
<g class="st0">
	<path class="st1" d="M53.9,136"/>
	<g id="envoyer_un_fichier_1_" transform="translate(-0.06 -2.18)">
		<path id="Tracé_385_1_" class="st1" d="M84.4,116"/>
		<path class="st1" d="M105.1,126.4h14.3c0,0,0,0,0.1,0c20.2-0.7,36.5-17,37.1-37.2c0.3-10.2-3.4-20-10.4-27.4s-16.5-11.7-26.8-12
			c-4.5,0-8.9,0.9-13.1,2.5c-1.3,0.5-2.7-0.1-3.2-1.4c-3.8-9.4-12.3-16.4-22.3-18.1c-7.8-1.3-15.6,0.4-22,4.9S48.1,49,46.7,56.7
			c-0.2,1.3-1.4,2.2-2.7,2.1c-1.3-0.1-2.6-0.2-3.9-0.2C21.7,58.7,6.8,73.9,7,92.4c0,18.7,15.2,34,33.9,34l0,0h22.7"/>
	</g>
	<path class="st1" d="M105.5,93.2L83.7,68.5L62.1,93.2"/>
</g>
<g>
	<path class="st2" d="M53.9,136"/>
	<g id="envoyer_un_fichier" transform="translate(-0.06 -2.18)">
		<path id="Tracé_385" class="st2" d="M84.4,116"/>
		<path class="st2" d="M105.1,126.4h14.3c0,0,0,0,0.1,0c20.2-0.7,36.5-17,37.1-37.2c0.3-10.2-3.4-20-10.4-27.4s-16.5-11.7-26.8-12
			c-4.5,0-8.9,0.9-13.1,2.5c-1.3,0.5-2.7-0.1-3.2-1.4c-3.8-9.4-12.3-16.4-22.3-18.1c-7.8-1.3-15.6,0.4-22,4.9S48.1,49,46.7,56.7
			c-0.2,1.3-1.4,2.2-2.7,2.1c-1.3-0.1-2.6-0.2-3.9-0.2C21.7,58.7,6.8,73.9,7,92.4c0,18.7,15.2,34,33.9,34l0,0h22.7"/>
	</g>
	<path class="st2" d="M105.5,93.2L83.7,68.5L62.1,93.2"/>
</g>
<line class="st2" x1="83.7" y1="68.8" x2="83.7" y2="126.6"/>
</svg>
