<?xml version="1.0" encoding="utf-8"?>
<!-- Generator: Adobe Illustrator 25.0.1, SVG Export Plug-In . SVG Version: 6.00 Build 0)  -->
<svg version="1.1" id="Calque_1" xmlns="http://www.w3.org/2000/svg" xmlns:xlink="http://www.w3.org/1999/xlink" x="0px" y="0px"
	 viewBox="0 0 163.6 163.6" style="enable-background:new 0 0 163.6 163.6;" xml:space="preserve">
<style type="text/css">
	.st0{opacity:1;}
	.st1{fill:#435f6f;}
	.st2{fill:none;stroke:#fff;stroke-width:10;stroke-linecap:round;stroke-miterlimit:10;}
</style>
<g>
	<g id="Groupe_70_3_" transform="translate(0 0)" class="st0">
		<g id="Groupe_56_3_">
			<path id="Tracé_71_3_" class="st1" d="M18.1,82.8c-0.5,0-0.9-0.1-1.5-0.4c-1.1-0.7-1.7-2-1.5-3.3l5.4-24V31.9
				c0-9.8,7.9-17.7,17.7-17.7h73.4c9.8,0,17.7,7.9,17.7,17.7v18c0,9.8-7.9,17.7-17.7,17.7H38.1c-2.5,0-5.1,1.1-6.8,2.9L20.4,81.9
				C19.8,82.4,19,82.8,18.1,82.8z"/>
		</g>
		<g id="Groupe_57_3_" transform="translate(10.003 34.638)">
			<path id="Tracé_72_3_" class="st1" d="M135.4,114.7c-0.8,0-1.6-0.4-2.1-0.9l-10.9-11.4c-1.7-1.9-4.3-2.9-6.8-2.9H42
				c-9.8,0-17.7-7.9-17.7-17.7v-18c0-9.8,7.9-17.7,17.7-17.7h73.4c9.8,0,17.7,7.9,17.7,17.7V87l5.4,24c0.3,1.3-0.3,2.7-1.5,3.3
				C136.4,114.6,135.9,114.7,135.4,114.7z"/>
		</g>
	</g>
	<g id="Groupe_70_2_" transform="translate(0 0)">
		<g id="Groupe_56_2_">
			<path id="Tracé_71_2_" class="st2" d="M18.1,82.8c-0.5,0-0.9-0.1-1.5-0.4c-1.1-0.7-1.7-2-1.5-3.3l5.4-24V31.9
				c0-9.8,7.9-17.7,17.7-17.7h73.4c9.8,0,17.7,7.9,17.7,17.7v18c0,9.8-7.9,17.7-17.7,17.7H38.1c-2.5,0-5.1,1.1-6.8,2.9L20.4,81.9
				C19.8,82.4,19,82.8,18.1,82.8z"/>
		</g>
		<g id="Groupe_57_2_" transform="translate(10.003 34.638)">
			<path id="Tracé_72_2_" class="st2" d="M135.4,114.7c-0.8,0-1.6-0.4-2.1-0.9l-10.9-11.4c-1.7-1.9-4.3-2.9-6.8-2.9H42
				c-9.8,0-17.7-7.9-17.7-17.7v-18c0-9.8,7.9-17.7,17.7-17.7h73.4c9.8,0,17.7,7.9,17.7,17.7V87l5.4,24c0.3,1.3-0.3,2.7-1.5,3.3
				C136.4,114.6,135.9,114.7,135.4,114.7z"/>
		</g>
	</g>
	<line class="st2" x1="47.3" y1="32.9" x2="102.9" y2="32.9"/>
	<line class="st2" x1="47.3" y1="48.3" x2="78" y2="48.3"/>
	<line class="st2" x1="60.7" y1="100" x2="116.4" y2="100"/>
	<line class="st2" x1="60.7" y1="115.4" x2="91.4" y2="115.4"/>
</g>
</svg>
