<?xml version="1.0" encoding="utf-8"?>
<!-- Generator: Adobe Illustrator 25.0.1, SVG Export Plug-In . SVG Version: 6.00 Build 0)  -->
<svg version="1.1" id="Calque_1" xmlns="http://www.w3.org/2000/svg" xmlns:xlink="http://www.w3.org/1999/xlink" x="0px" y="0px"
	 viewBox="0 0 163.6 163.6" style="enable-background:new 0 0 163.6 163.6;" xml:space="preserve">
<style type="text/css">
	.st0{opacity:1;}
	.st1{fill:#fff;}
	.st2{fill:none;stroke:#435f6f;stroke-width:10;stroke-linecap:round;stroke-miterlimit:10;}
</style>
<g>
	<g class="st0">
		<g>
			<g>
				<path class="st1" d="M116.3,148.4h-69c-9.4,0-17-7.6-17-17V32.2c0-9.4,7.6-17,17-17h44.9c2.2,0,4.3,0.9,5.8,2.4l33,33
					c1.5,1.5,2.4,3.6,2.4,5.8v75C133.4,140.8,125.7,148.4,116.3,148.4z"/>
			</g>
		</g>
	</g>
	<g>
		<g>
			<g>
				<path class="st2" d="M116.3,148.4h-69c-9.4,0-17-7.6-17-17V32.2c0-9.4,7.6-17,17-17h44.9c2.2,0,4.3,0.9,5.8,2.4l33,33
					c1.5,1.5,2.4,3.6,2.4,5.8v75C133.4,140.8,125.7,148.4,116.3,148.4z"/>
			</g>
		</g>
	</g>
	<g>
		<path class="st2" d="M130.8,55.8h-21c-9.4,0-17-7.6-17-17v-21c0-0.9,0.5-1.6,1.3-2c0.8-0.3,1.6-0.1,2.3,0.4L132.2,52
			c0.5,0.5,0.8,1.5,0.4,2.3C132.2,55.3,131.4,55.8,130.8,55.8z"/>
	</g>
	<line class="st2" x1="51.5" y1="89.3" x2="110.4" y2="89.3"/>
	<line class="st2" x1="51.5" y1="72.1" x2="110.4" y2="72.1"/>
	<line class="st2" x1="51.5" y1="106.6" x2="84.1" y2="106.6"/>
</g>
</svg>
