<?xml version="1.0" encoding="utf-8"?>
<!-- Generator: Adobe Illustrator 25.0.1, SVG Export Plug-In . SVG Version: 6.00 Build 0)  -->
<svg version="1.1" id="Calque_1" xmlns="http://www.w3.org/2000/svg" xmlns:xlink="http://www.w3.org/1999/xlink" x="0px" y="0px"
	 viewBox="0 0 163.6 163.6" style="enable-background:new 0 0 163.6 163.6;" xml:space="preserve">
<style type="text/css">
	.st0{opacity:1;fill:#fff;}
	.st1{fill:none;stroke:#435f6f;stroke-width:10;stroke-linejoin:round;stroke-miterlimit:10;}
	.st2{fill:none;stroke:#435f6f;stroke-width:10;stroke-linejoin:round;stroke-miterlimit:10;}
	.st3{fill:#435f6f;}
	.st4{fill:none;stroke:#fff;stroke-width:10;stroke-linecap:round;stroke-linejoin:round;stroke-miterlimit:10;}
</style>
<g>
	<path class="st0" d="M137.9,128.5V72.3c0-1.8-0.9-3.6-2.3-4.7L85.4,29.4c-2.1-1.6-5-1.6-7.1,0L28,67.6c-1.5,1.1-2.3,2.9-2.3,4.7
		v56.3c0,3.3,2.6,5.9,5.9,5.9H132C135.3,134.5,137.9,131.8,137.9,128.5z"/>
	<path class="st1" d="M137.9,128.5V72.3c0-1.8-0.9-3.6-2.3-4.7L85.4,29.4c-2.1-1.6-5-1.6-7.1,0L28,67.6c-1.5,1.1-2.3,2.9-2.3,4.7
		v56.3c0,3.3,2.6,5.9,5.9,5.9H132C135.3,134.5,137.9,131.8,137.9,128.5z"/>
	<path class="st2" d="M61.6,134.5V91.1c0-3.3,2.7-6,6-6H96c3.3,0,6,2.7,6,6v43.3"/>
	<polygon class="st3" points="61,135.4 61,89.3 65.2,85.1 97.5,85.1 102.6,90.2 102.6,135.2 	"/>
	<polyline class="st4" points="67.2,108.6 76.2,117.6 96.4,97.4 	"/>
</g>
</svg>
