<?xml version="1.0" encoding="utf-8"?>
<!-- Generator: Adobe Illustrator 25.0.1, SVG Export Plug-In . SVG Version: 6.00 Build 0)  -->
<svg version="1.1" id="Calque_1" xmlns="http://www.w3.org/2000/svg" xmlns:xlink="http://www.w3.org/1999/xlink" x="0px" y="0px"
	 viewBox="0 0 163.6 163.6" style="enable-background:new 0 0 163.6 163.6;" xml:space="preserve">
<style type="text/css">
	.st0{opacity:1;}
	.st1{fill:#fff;}
	.st2{fill:none;stroke:#435f6f;stroke-width:10;stroke-linecap:round;stroke-miterlimit:10;}
	.st3{fill:#435f6f;}
</style>
<g>
	<g id="Groupe_81_3_" class="st0">
		<g id="Groupe_80_3_">
			<g id="Groupe_77_3_">
				<g id="Groupe_76_3_">
					<path id="Tracé_75_3_" class="st1" d="M95.3,138H31.2c-10.8,0-19.5-8.8-19.5-19.5V45.1c0-10.8,8.8-19.5,19.5-19.5h64.1
						c10.8,0,19.5,8.8,19.5,19.5v73.3C114.9,129.2,106.1,138,95.3,138z"/>
				</g>
			</g>
			<g id="Groupe_79_3_" transform="translate(63.267 16.058)">
				<g id="Groupe_78_3_">
					<path id="Tracé_76_3_" class="st1" d="M86.2,95.1c-0.3,0-0.6-0.1-0.8-0.2L64,87c-0.9-0.3-1.5-1.2-1.5-2.2V48
						c0-1,0.6-1.9,1.5-2.2l21.4-8c1.2-0.5,2.6,0.2,3.1,1.4c0.1,0.3,0.1,0.5,0.1,0.8v52.8C88.6,94.1,87.6,95.1,86.2,95.1L86.2,95.1z"
						/>
				</g>
			</g>
		</g>
	</g>
	<g id="Groupe_82_1_" transform="translate(0 0)">
		<g id="Groupe_81_2_">
			<g id="Groupe_80_2_">
				<g id="Groupe_77_2_">
					<g id="Groupe_76_2_">
						<path id="Tracé_75_2_" class="st2" d="M95.3,138H31.2c-10.8,0-19.5-8.8-19.5-19.5V45.1c0-10.8,8.8-19.5,19.5-19.5h64.1
							c10.8,0,19.5,8.8,19.5,19.5v73.3C114.9,129.2,106.1,138,95.3,138z"/>
					</g>
				</g>
				<g id="Groupe_79_2_" transform="translate(63.267 16.058)">
					<g id="Groupe_78_2_">
						<path id="Tracé_76_2_" class="st2" d="M86.2,95.1c-0.3,0-0.6-0.1-0.8-0.2L64,87c-0.9-0.3-1.5-1.2-1.5-2.2V48
							c0-1,0.6-1.9,1.5-2.2l21.4-8c1.2-0.5,2.6,0.2,3.1,1.4c0.1,0.3,0.1,0.5,0.1,0.8v52.8C88.6,94.1,87.6,95.1,86.2,95.1L86.2,95.1z
							"/>
					</g>
				</g>
			</g>
		</g>
		<circle id="Ellipse_27_1_" class="st3" cx="63.5" cy="81.8" r="13.8"/>
	</g>
</g>
</svg>
